<?xml version="1.0" encoding="utf-8"?>
<!-- Generator: Adobe Illustrator 19.0.0, SVG Export Plug-In . SVG Version: 6.00 Build 0)  -->
<svg version="1.1" id="Layer_1" xmlns="http://www.w3.org/2000/svg" xmlns:xlink="http://www.w3.org/1999/xlink" x="0px" y="0px"
	 viewBox="0 0 118.3 34" style="enable-background:new 0 0 118.3 34;" xml:space="preserve">
<style type="text/css">
	.st0{fill:#1FAFC6;stroke:#000000;stroke-miterlimit:10;}
	.st1{stroke:#000000;stroke-miterlimit:10;}
	.st2{fill:#ED1C24;}
	.st3{font-family:'Ebrima';}
	.st4{font-size:31px;}
	.st5{letter-spacing:-1;}
	.st6{font-size:41px;}
	.st7{letter-spacing:-8.1;}
	.st8{fill:none;stroke:#000000;stroke-miterlimit:10;}
	.st9{letter-spacing:-6;}
</style>
<circle id="XMLID_7_" class="st0" cx="545.3" cy="266.9" r="5.3"/>
<circle id="XMLID_8_" class="st0" cx="519.5" cy="266.9" r="5.3"/>
<circle id="XMLID_9_" class="st1" cx="493.8" cy="266.9" r="5.3"/>
<circle id="XMLID_10_" class="st1" cx="468.1" cy="266.9" r="5.3"/>
<circle id="XMLID_11_" class="st1" cx="442.3" cy="266.9" r="5.3"/>
<circle id="XMLID_12_" class="st1" cx="416.6" cy="266.9" r="5.3"/>
<circle id="XMLID_26_" class="st1" cx="262.3" cy="435.3" r="5.3"/>
<circle id="XMLID_25_" class="st1" cx="288" cy="435.3" r="5.3"/>
<circle id="XMLID_24_" class="st0" cx="390.9" cy="435.3" r="5.3"/>
<circle id="XMLID_23_" class="st1" cx="365.2" cy="435.3" r="5.3"/>
<circle id="XMLID_22_" class="st1" cx="339.4" cy="435.3" r="5.3"/>
<circle id="XMLID_21_" class="st1" cx="313.7" cy="435.3" r="5.3"/>
<circle id="XMLID_19_" class="st1" cx="519.5" cy="435.3" r="5.3"/>
<circle id="XMLID_18_" class="st1" cx="493.8" cy="435.3" r="5.3"/>
<circle id="XMLID_17_" class="st1" cx="468.1" cy="435.3" r="5.3"/>
<circle id="XMLID_16_" class="st1" cx="442.3" cy="435.3" r="5.3"/>
<circle id="XMLID_15_" class="st1" cx="416.6" cy="435.3" r="5.3"/>
<circle id="XMLID_37_" class="st1" cx="390.9" cy="285.6" r="5.3"/>
<circle id="XMLID_33_" class="st1" cx="545.3" cy="285.6" r="5.3"/>
<circle id="XMLID_32_" class="st0" cx="519.5" cy="285.6" r="5.3"/>
<circle id="XMLID_31_" class="st0" cx="493.8" cy="285.6" r="5.3"/>
<circle id="XMLID_30_" class="st1" cx="468.1" cy="285.6" r="5.3"/>
<circle id="XMLID_29_" class="st1" cx="442.3" cy="285.6" r="5.3"/>
<circle id="XMLID_28_" class="st1" cx="416.6" cy="285.6" r="5.3"/>
<circle id="XMLID_50_" class="st1" cx="390.9" cy="304.3" r="5.3"/>
<circle id="XMLID_49_" class="st1" cx="365.2" cy="304.3" r="5.3"/>
<circle id="XMLID_48_" class="st1" cx="339.4" cy="304.3" r="5.3"/>
<circle id="XMLID_46_" class="st1" cx="545.3" cy="304.3" r="5.3"/>
<circle id="XMLID_45_" class="st1" cx="519.5" cy="304.3" r="5.3"/>
<circle id="XMLID_44_" class="st0" cx="493.8" cy="304.3" r="5.3"/>
<circle id="XMLID_43_" class="st1" cx="468.1" cy="304.3" r="5.3"/>
<circle id="XMLID_42_" class="st1" cx="442.3" cy="304.3" r="5.3"/>
<circle id="XMLID_41_" class="st1" cx="416.6" cy="304.3" r="5.3"/>
<circle id="XMLID_63_" class="st1" cx="390.9" cy="323.1" r="5.3"/>
<circle id="XMLID_62_" class="st1" cx="365.2" cy="323.1" r="5.3"/>
<circle id="XMLID_61_" class="st1" cx="339.4" cy="323.1" r="5.3"/>
<circle id="XMLID_60_" class="st1" cx="313.7" cy="323.1" r="5.3"/>
<circle id="XMLID_59_" class="st1" cx="545.3" cy="323.1" r="5.3"/>
<circle id="XMLID_58_" class="st1" cx="519.5" cy="323.1" r="5.3"/>
<circle id="XMLID_57_" class="st1" cx="493.8" cy="323.1" r="5.3"/>
<circle id="XMLID_56_" class="st0" cx="468.1" cy="323.1" r="5.3"/>
<circle id="XMLID_55_" class="st1" cx="442.3" cy="323.1" r="5.3"/>
<circle id="XMLID_54_" class="st1" cx="416.6" cy="323.1" r="5.3"/>
<circle id="XMLID_77_" class="st1" cx="288" cy="341.8" r="5.3"/>
<circle id="XMLID_76_" class="st1" cx="390.9" cy="341.8" r="5.3"/>
<circle id="XMLID_75_" class="st1" cx="365.2" cy="341.8" r="5.3"/>
<circle id="XMLID_74_" class="st1" cx="339.4" cy="341.8" r="5.3"/>
<circle id="XMLID_73_" class="st1" cx="313.7" cy="341.8" r="5.3"/>
<circle id="XMLID_72_" class="st1" cx="545.3" cy="341.8" r="5.3"/>
<circle id="XMLID_71_" class="st1" cx="519.5" cy="341.8" r="5.3"/>
<circle id="XMLID_70_" class="st1" cx="493.8" cy="341.8" r="5.3"/>
<circle id="XMLID_69_" class="st0" cx="468.1" cy="341.8" r="5.3"/>
<circle id="XMLID_68_" class="st1" cx="442.3" cy="341.8" r="5.3"/>
<circle id="XMLID_67_" class="st1" cx="416.6" cy="341.8" r="5.3"/>
<circle id="XMLID_91_" class="st1" cx="262.3" cy="360.5" r="5.3"/>
<circle id="XMLID_90_" class="st1" cx="288" cy="360.5" r="5.3"/>
<circle id="XMLID_89_" class="st1" cx="390.9" cy="360.5" r="5.3"/>
<circle id="XMLID_88_" class="st1" cx="365.2" cy="360.5" r="5.3"/>
<circle id="XMLID_87_" class="st1" cx="339.4" cy="360.5" r="5.3"/>
<circle id="XMLID_86_" class="st1" cx="313.7" cy="360.5" r="5.3"/>
<circle id="XMLID_85_" class="st1" cx="545.3" cy="360.5" r="5.3"/>
<circle id="XMLID_84_" class="st1" cx="519.5" cy="360.5" r="5.3"/>
<circle id="XMLID_83_" class="st1" cx="493.8" cy="360.5" r="5.3"/>
<circle id="XMLID_82_" class="st1" cx="468.1" cy="360.5" r="5.3"/>
<circle id="XMLID_81_" class="st0" cx="442.3" cy="360.5" r="5.3"/>
<circle id="XMLID_80_" class="st1" cx="416.6" cy="360.5" r="5.3"/>
<circle id="XMLID_104_" class="st1" cx="262.3" cy="379.2" r="5.3"/>
<circle id="XMLID_103_" class="st1" cx="288" cy="379.2" r="5.3"/>
<circle id="XMLID_102_" class="st1" cx="390.9" cy="379.2" r="5.3"/>
<circle id="XMLID_101_" class="st1" cx="365.2" cy="379.2" r="5.3"/>
<circle id="XMLID_100_" class="st1" cx="339.4" cy="379.2" r="5.3"/>
<circle id="XMLID_99_" class="st1" cx="313.7" cy="379.2" r="5.3"/>
<circle id="XMLID_98_" class="st1" cx="545.3" cy="379.2" r="5.3"/>
<circle id="XMLID_97_" class="st1" cx="519.5" cy="379.2" r="5.3"/>
<circle id="XMLID_96_" class="st1" cx="493.8" cy="379.2" r="5.3"/>
<circle id="XMLID_95_" class="st1" cx="468.1" cy="379.2" r="5.3"/>
<circle id="XMLID_94_" class="st0" cx="442.3" cy="379.2" r="5.3"/>
<circle id="XMLID_93_" class="st0" cx="416.6" cy="379.2" r="5.3"/>
<circle id="XMLID_117_" class="st1" cx="262.3" cy="397.9" r="5.3"/>
<circle id="XMLID_116_" class="st1" cx="288" cy="397.9" r="5.3"/>
<circle id="XMLID_115_" class="st1" cx="390.9" cy="397.9" r="5.3"/>
<circle id="XMLID_114_" class="st1" cx="365.2" cy="397.9" r="5.3"/>
<circle id="XMLID_113_" class="st1" cx="339.4" cy="397.9" r="5.3"/>
<circle id="XMLID_112_" class="st1" cx="313.7" cy="397.9" r="5.3"/>
<circle id="XMLID_111_" class="st1" cx="545.3" cy="397.9" r="5.3"/>
<circle id="XMLID_110_" class="st1" cx="519.5" cy="397.9" r="5.3"/>
<circle id="XMLID_109_" class="st1" cx="493.8" cy="397.9" r="5.3"/>
<circle id="XMLID_108_" class="st1" cx="468.1" cy="397.9" r="5.3"/>
<circle id="XMLID_107_" class="st1" cx="442.3" cy="397.9" r="5.3"/>
<circle id="XMLID_106_" class="st0" cx="416.6" cy="397.9" r="5.3"/>
<circle id="XMLID_130_" class="st1" cx="262.3" cy="416.6" r="5.3"/>
<circle id="XMLID_129_" class="st1" cx="288" cy="416.6" r="5.3"/>
<circle id="XMLID_128_" class="st0" cx="390.9" cy="416.6" r="5.3"/>
<circle id="XMLID_127_" class="st1" cx="365.2" cy="416.6" r="5.3"/>
<circle id="XMLID_126_" class="st1" cx="339.4" cy="416.6" r="5.3"/>
<circle id="XMLID_125_" class="st1" cx="313.7" cy="416.6" r="5.3"/>
<circle id="XMLID_124_" class="st1" cx="545.3" cy="416.6" r="5.3"/>
<circle id="XMLID_123_" class="st1" cx="519.5" cy="416.6" r="5.3"/>
<circle id="XMLID_122_" class="st1" cx="493.8" cy="416.6" r="5.3"/>
<circle id="XMLID_121_" class="st1" cx="468.1" cy="416.6" r="5.3"/>
<circle id="XMLID_120_" class="st1" cx="442.3" cy="416.6" r="5.3"/>
<circle id="XMLID_119_" class="st0" cx="416.6" cy="416.6" r="5.3"/>
<circle id="XMLID_195_" class="st0" cx="262.3" cy="528.9" r="5.3"/>
<circle id="XMLID_194_" class="st0" cx="288" cy="528.9" r="5.3"/>
<circle id="XMLID_193_" class="st1" cx="390.9" cy="528.9" r="5.3"/>
<circle id="XMLID_192_" class="st1" cx="365.2" cy="528.9" r="5.3"/>
<circle id="XMLID_191_" class="st1" cx="339.4" cy="528.9" r="5.3"/>
<circle id="XMLID_190_" class="st0" cx="313.7" cy="528.9" r="5.3"/>
<circle id="XMLID_182_" class="st1" cx="262.3" cy="454" r="5.3"/>
<circle id="XMLID_181_" class="st1" cx="288" cy="454" r="5.3"/>
<circle id="XMLID_180_" class="st0" cx="390.9" cy="454" r="5.3"/>
<circle id="XMLID_179_" class="st0" cx="365.2" cy="454" r="5.3"/>
<circle id="XMLID_178_" class="st1" cx="339.4" cy="454" r="5.3"/>
<circle id="XMLID_177_" class="st1" cx="313.7" cy="454" r="5.3"/>
<circle id="XMLID_175_" class="st1" cx="519.5" cy="454" r="5.3"/>
<circle id="XMLID_174_" class="st1" cx="493.8" cy="454" r="5.3"/>
<circle id="XMLID_173_" class="st1" cx="468.1" cy="454" r="5.3"/>
<circle id="XMLID_172_" class="st1" cx="442.3" cy="454" r="5.3"/>
<circle id="XMLID_171_" class="st1" cx="416.6" cy="454" r="5.3"/>
<circle id="XMLID_169_" class="st1" cx="262.3" cy="472.8" r="5.3"/>
<circle id="XMLID_168_" class="st1" cx="288" cy="472.8" r="5.3"/>
<circle id="XMLID_167_" class="st1" cx="390.9" cy="472.8" r="5.3"/>
<circle id="XMLID_166_" class="st0" cx="365.2" cy="472.8" r="5.3"/>
<circle id="XMLID_165_" class="st0" cx="339.4" cy="472.8" r="5.3"/>
<circle id="XMLID_164_" class="st1" cx="313.7" cy="472.8" r="5.3"/>
<circle id="XMLID_162_" class="st1" cx="519.5" cy="472.8" r="5.3"/>
<circle id="XMLID_161_" class="st1" cx="493.8" cy="472.8" r="5.3"/>
<circle id="XMLID_160_" class="st1" cx="468.1" cy="472.8" r="5.3"/>
<circle id="XMLID_159_" class="st1" cx="442.3" cy="472.8" r="5.3"/>
<circle id="XMLID_158_" class="st1" cx="416.6" cy="472.8" r="5.3"/>
<circle id="XMLID_156_" class="st1" cx="262.3" cy="491.5" r="5.3"/>
<circle id="XMLID_155_" class="st1" cx="288" cy="491.5" r="5.3"/>
<circle id="XMLID_154_" class="st1" cx="390.9" cy="491.5" r="5.3"/>
<circle id="XMLID_153_" class="st0" cx="365.2" cy="491.5" r="5.3"/>
<circle id="XMLID_152_" class="st0" cx="339.4" cy="491.5" r="5.3"/>
<circle id="XMLID_151_" class="st1" cx="313.7" cy="491.5" r="5.3"/>
<circle id="XMLID_148_" class="st1" cx="493.8" cy="491.5" r="5.3"/>
<circle id="XMLID_147_" class="st1" cx="468.1" cy="491.5" r="5.3"/>
<circle id="XMLID_146_" class="st1" cx="442.3" cy="491.5" r="5.3"/>
<circle id="XMLID_145_" class="st1" cx="416.6" cy="491.5" r="5.3"/>
<circle id="XMLID_143_" class="st1" cx="262.3" cy="510.2" r="5.3"/>
<circle id="XMLID_142_" class="st1" cx="288" cy="510.2" r="5.3"/>
<circle id="XMLID_141_" class="st1" cx="390.9" cy="510.2" r="5.3"/>
<circle id="XMLID_140_" class="st1" cx="365.2" cy="510.2" r="5.3"/>
<circle id="XMLID_139_" class="st0" cx="339.4" cy="510.2" r="5.3"/>
<circle id="XMLID_138_" class="st0" cx="313.7" cy="510.2" r="5.3"/>
<circle id="XMLID_133_" class="st1" cx="442.3" cy="510.2" r="5.3"/>
<circle id="XMLID_132_" class="st1" cx="416.6" cy="510.2" r="5.3"/>
<text id="XMLID_1_" transform="matrix(1 0 0 1 262.6665 141.6668)" style="fill:#E04444; font-family:'Microsoft-Yi-Baiti'; font-size:60px; letter-spacing:-5;">F</text>
<text id="XMLID_3_" transform="matrix(0.7968 0 0 1 304.5146 142.6668)" style="font-family:'Microsoft-Yi-Baiti'; font-size:60px; letter-spacing:-10;">AT</text>
<text id="XMLID_4_" transform="matrix(1 0 0 1 259.8332 212.0002)" class="st9" style="font-family:'Candara'; font-size:60px;">Fer</text>
<text id="XMLID_2_" transform="matrix(1 0 0 1 364.9094 212.0002)" class="st9" style="font-family:'Candara'; font-size:60px;">AT</text>
<text id="XMLID_6_" transform="matrix(1 0 0 1 324.1816 212)" style="font-family:'Candara'; font-size:60px; letter-spacing:-4;">m</text>
<text id="XMLID_13_" transform="matrix(0.7 0 0 0.7 324.1817 59.6668)" style="font-family:'Microsoft-Yi-Baiti'; font-size:44px; letter-spacing:-2.9;">m</text>
<text id="XMLID_20_" transform="matrix(1.2182 0 0 1 18.5684 102.8997)" style="fill:#4078BD;stroke:#000000;stroke-width:0.5;stroke-miterlimit:10; font-family:'Candara'; font-size:49.2532px; letter-spacing:-4.9;">F</text>
<text id="XMLID_14_" transform="matrix(0.6478 0 0 1 81.7834 102.2959)" style="fill:#4078BD;stroke:#000000;stroke-width:0.5;stroke-miterlimit:10; font-family:'Candara'; font-size:48.52px; letter-spacing:-4.6;">T</text>
<text id="XMLID_5_" transform="matrix(0.9748 0 0 1 47.25 102.5809)" class="st5" style="font-family:'Candara'; font-size:24.5604px;">m</text>
<text id="XMLID_34_" transform="matrix(0.9748 0 0 1 29.5 102.5809)" style="font-family:'Candara'; font-size:24.5604px; letter-spacing:-2.1;">er</text>
<text id="XMLID_35_" transform="matrix(0.6677 0 0 0.7 269 141.616)" style="font-family:'Microsoft-Yi-Baiti'; font-size:35.8604px; letter-spacing:-1.5;">erm</text>
<text id="XMLID_36_" transform="matrix(0.6502 0 0 1 66.3789 102.2957)" style="fill:#4078BD;stroke:#000000;stroke-width:0.5;stroke-miterlimit:10; font-family:'Candara'; font-size:48.5166px; letter-spacing:-4.6;">A</text>
<text id="XMLID_47_" transform="matrix(1.2182 0 0 1 468.3647 157.8997)" style="font-family:'Candara'; font-size:49.2532px; letter-spacing:-4.9;">F</text>
<text id="XMLID_40_" transform="matrix(0.6478 0 0 1 530.9575 157.2957)" style="font-family:'Candara'; font-size:48.5166px; letter-spacing:-4.6;">T</text>
<text id="XMLID_39_" transform="matrix(0.9748 0 0 1 496.0464 157.5809)" class="st5" style="font-family:'Candara'; font-size:24.5604px;">m</text>
<text id="XMLID_38_" transform="matrix(0.9748 0 0 1 478.2964 157.5809)" style="font-family:'Candara'; font-size:24.5604px; letter-spacing:-2.1;">er</text>
<text id="XMLID_27_" transform="matrix(0.6502 0 0 1 515.1753 157.2957)" style="font-family:'Candara'; font-size:48.5166px; letter-spacing:-4.6;">A</text>
<text id="XMLID_207_" transform="matrix(1 0 0 1 327.9095 9.3335)" class="st9" style="font-family:'Candara'; font-size:60px;">Fer</text>
<text id="XMLID_206_" transform="matrix(1 0 0 1 432.9857 9.3335)" class="st9" style="font-family:'Candara'; font-size:60px;">AT</text>
<text id="XMLID_205_" transform="matrix(1 0 0 1 392.2579 9.3333)" style="font-family:'Candara'; font-size:60px; letter-spacing:-4;">m</text>
<g id="XMLID_332_">
	<path id="XMLID_333_" class="st2" d="M41.3,5.8H30.1v9.9h6.2l-2.5,3l-3.7,0v12.7h-3.4V2.7h14.6V5.8z"/>
</g>
<text id="XMLID_210_" transform="matrix(1 0 0 1 32.3137 31.4316)" class="st3 st4 st5">erm</text>
<text id="XMLID_52_" transform="matrix(0.74 0 0 1 79.647 31.4318)" class="st2 st3 st6 st7">A</text>
<polygon id="XMLID_51_" points="11.5,0.8 25.5,17.1 6.2,4.9 "/>
<polygon id="XMLID_53_" points="5.7,29 25.5,17.1 11.1,32.9 "/>
<polygon id="XMLID_64_" points="1.5,13.7 25.5,17.1 1.5,19.8 "/>
<polygon id="XMLID_215_" points="5,6.7 25.5,17.1 1.9,12 "/>
<polygon id="XMLID_216_" points="2,21.6 25.5,17.1 4.5,27.1 "/>
<polygon id="XMLID_214_" points="593.1,-16.1 594.8,-9.7 588.4,-11.4 "/>
<polygon id="XMLID_217_" points="568.5,-6.1 574.2,-2.8 568.5,0.5 "/>
<polygon id="XMLID_218_" points="573,-3.9 578.7,-0.6 573,2.7 "/>
<polygon id="XMLID_221_" points="568.1,2.7 573.8,6 568.1,9.3 "/>
<polygon id="XMLID_220_" points="604.5,1.7 610.2,5 604.5,8.3 "/>
<polygon id="XMLID_219_" points="600.5,-4.9 606.3,-1.6 600.5,1.7 "/>
<polygon id="XMLID_222_" class="st8" points="110.8,25.5 104.9,22.1 110.8,18.8 "/>
<polygon id="XMLID_223_" class="st8" points="110.8,18.8 104.9,15.4 110.8,12.1 "/>
<polygon id="XMLID_224_" class="st8" points="116.6,22.1 110.8,18.8 116.6,15.4 "/>
<polygon id="XMLID_225_" points="608.4,49.9 605.1,55.7 601.7,49.9 "/>
<polygon id="XMLID_226_" points="605.1,44.1 601.7,49.9 598.4,44.1 "/>
<text id="XMLID_331_" transform="matrix(1 0 0 1 19.5739 65.4824)" class="st2 st3 st6">F</text>
<text id="XMLID_208_" transform="matrix(1 0 0 1 74.8655 65.2324)" class="st2 st3 st6 st9">AT</text>
<g id="XMLID_335_">
	<path id="XMLID_337_" class="st2" d="M110.8,5.8h-8.3v25.7h-3.4V5.8h-6.2l-1-3h18.9V5.8z"/>
</g>
</svg>
