<?xml version="1.0" encoding="utf-8"?>
<!-- Generator: Adobe Illustrator 19.0.0, SVG Export Plug-In . SVG Version: 6.00 Build 0)  -->
<svg version="1.1" id="Layer_1" xmlns="http://www.w3.org/2000/svg" xmlns:xlink="http://www.w3.org/1999/xlink" x="0px" y="0px"
	 viewBox="0 0 98.09074 26.3714" enable-background="new 0 0 98.09074 26.3714" xml:space="preserve">
<circle id="XMLID_7_" fill="#1FAFC6" stroke="#000000" stroke-miterlimit="10" cx="657.42535" cy="461.52881" r="5.25"/>
<circle id="XMLID_8_" fill="#1FAFC6" stroke="#000000" stroke-miterlimit="10" cx="631.69806" cy="461.52881" r="5.25"/>
<circle id="XMLID_9_" stroke="#000000" stroke-miterlimit="10" cx="605.97083" cy="461.52881" r="5.25"/>
<circle id="XMLID_10_" stroke="#000000" stroke-miterlimit="10" cx="580.24353" cy="461.52881" r="5.25"/>
<circle id="XMLID_11_" stroke="#000000" stroke-miterlimit="10" cx="554.5163" cy="461.52881" r="5.25"/>
<circle id="XMLID_12_" stroke="#000000" stroke-miterlimit="10" cx="528.789" cy="461.52881" r="5.25"/>
<circle id="XMLID_26_" stroke="#000000" stroke-miterlimit="10" cx="374.42535" cy="629.93951" r="5.25"/>
<circle id="XMLID_25_" stroke="#000000" stroke-miterlimit="10" cx="400.15262" cy="629.93951" r="5.25"/>
<circle id="XMLID_24_" fill="#1FAFC6" stroke="#000000" stroke-miterlimit="10" cx="503.06171" cy="629.93951" r="5.25"/>
<circle id="XMLID_23_" stroke="#000000" stroke-miterlimit="10" cx="477.33444" cy="629.93951" r="5.25"/>
<circle id="XMLID_22_" stroke="#000000" stroke-miterlimit="10" cx="451.60718" cy="629.93951" r="5.25"/>
<circle id="XMLID_21_" stroke="#000000" stroke-miterlimit="10" cx="425.87991" cy="629.93951" r="5.25"/>
<circle id="XMLID_19_" stroke="#000000" stroke-miterlimit="10" cx="631.69806" cy="629.93951" r="5.25"/>
<circle id="XMLID_18_" stroke="#000000" stroke-miterlimit="10" cx="605.97083" cy="629.93951" r="5.25"/>
<circle id="XMLID_17_" stroke="#000000" stroke-miterlimit="10" cx="580.24353" cy="629.93951" r="5.25"/>
<circle id="XMLID_16_" stroke="#000000" stroke-miterlimit="10" cx="554.5163" cy="629.93951" r="5.25"/>
<circle id="XMLID_15_" stroke="#000000" stroke-miterlimit="10" cx="528.789" cy="629.93951" r="5.25"/>
<circle id="XMLID_37_" stroke="#000000" stroke-miterlimit="10" cx="503.06171" cy="480.24109" r="5.25"/>
<circle id="XMLID_33_" stroke="#000000" stroke-miterlimit="10" cx="657.42535" cy="480.24109" r="5.25"/>
<circle id="XMLID_32_" fill="#1FAFC6" stroke="#000000" stroke-miterlimit="10" cx="631.69806" cy="480.24109" r="5.25"/>
<circle id="XMLID_31_" fill="#1FAFC6" stroke="#000000" stroke-miterlimit="10" cx="605.97083" cy="480.24109" r="5.25"/>
<circle id="XMLID_30_" stroke="#000000" stroke-miterlimit="10" cx="580.24353" cy="480.24109" r="5.25"/>
<circle id="XMLID_29_" stroke="#000000" stroke-miterlimit="10" cx="554.5163" cy="480.24109" r="5.25"/>
<circle id="XMLID_28_" stroke="#000000" stroke-miterlimit="10" cx="528.789" cy="480.24109" r="5.25"/>
<circle id="XMLID_50_" stroke="#000000" stroke-miterlimit="10" cx="503.06171" cy="498.9534" r="5.25"/>
<circle id="XMLID_49_" stroke="#000000" stroke-miterlimit="10" cx="477.33444" cy="498.9534" r="5.25"/>
<circle id="XMLID_48_" stroke="#000000" stroke-miterlimit="10" cx="451.60718" cy="498.9534" r="5.25"/>
<circle id="XMLID_46_" stroke="#000000" stroke-miterlimit="10" cx="657.42535" cy="498.9534" r="5.25"/>
<circle id="XMLID_45_" stroke="#000000" stroke-miterlimit="10" cx="631.69806" cy="498.9534" r="5.25"/>
<circle id="XMLID_44_" fill="#1FAFC6" stroke="#000000" stroke-miterlimit="10" cx="605.97083" cy="498.9534" r="5.25"/>
<circle id="XMLID_43_" stroke="#000000" stroke-miterlimit="10" cx="580.24353" cy="498.9534" r="5.25"/>
<circle id="XMLID_42_" stroke="#000000" stroke-miterlimit="10" cx="554.5163" cy="498.9534" r="5.25"/>
<circle id="XMLID_41_" stroke="#000000" stroke-miterlimit="10" cx="528.789" cy="498.9534" r="5.25"/>
<circle id="XMLID_63_" stroke="#000000" stroke-miterlimit="10" cx="503.06171" cy="517.66571" r="5.25"/>
<circle id="XMLID_62_" stroke="#000000" stroke-miterlimit="10" cx="477.33444" cy="517.66571" r="5.25"/>
<circle id="XMLID_61_" stroke="#000000" stroke-miterlimit="10" cx="451.60718" cy="517.66571" r="5.25"/>
<circle id="XMLID_60_" stroke="#000000" stroke-miterlimit="10" cx="425.87991" cy="517.66571" r="5.25"/>
<circle id="XMLID_59_" stroke="#000000" stroke-miterlimit="10" cx="657.42535" cy="517.66571" r="5.25"/>
<circle id="XMLID_58_" stroke="#000000" stroke-miterlimit="10" cx="631.69806" cy="517.66571" r="5.25"/>
<circle id="XMLID_57_" stroke="#000000" stroke-miterlimit="10" cx="605.97083" cy="517.66571" r="5.25"/>
<circle id="XMLID_56_" fill="#1FAFC6" stroke="#000000" stroke-miterlimit="10" cx="580.24353" cy="517.66571" r="5.25"/>
<circle id="XMLID_55_" stroke="#000000" stroke-miterlimit="10" cx="554.5163" cy="517.66571" r="5.25"/>
<circle id="XMLID_54_" stroke="#000000" stroke-miterlimit="10" cx="528.789" cy="517.66571" r="5.25"/>
<circle id="XMLID_77_" stroke="#000000" stroke-miterlimit="10" cx="400.15262" cy="536.37799" r="5.25"/>
<circle id="XMLID_76_" stroke="#000000" stroke-miterlimit="10" cx="503.06171" cy="536.37799" r="5.25"/>
<circle id="XMLID_75_" stroke="#000000" stroke-miterlimit="10" cx="477.33444" cy="536.37799" r="5.25"/>
<circle id="XMLID_74_" stroke="#000000" stroke-miterlimit="10" cx="451.60718" cy="536.37799" r="5.25"/>
<circle id="XMLID_73_" stroke="#000000" stroke-miterlimit="10" cx="425.87991" cy="536.37799" r="5.25"/>
<circle id="XMLID_72_" stroke="#000000" stroke-miterlimit="10" cx="657.42535" cy="536.37799" r="5.25"/>
<circle id="XMLID_71_" stroke="#000000" stroke-miterlimit="10" cx="631.69806" cy="536.37799" r="5.25"/>
<circle id="XMLID_70_" stroke="#000000" stroke-miterlimit="10" cx="605.97083" cy="536.37799" r="5.25"/>
<circle id="XMLID_69_" fill="#1FAFC6" stroke="#000000" stroke-miterlimit="10" cx="580.24353" cy="536.37799" r="5.25"/>
<circle id="XMLID_68_" stroke="#000000" stroke-miterlimit="10" cx="554.5163" cy="536.37799" r="5.25"/>
<circle id="XMLID_67_" stroke="#000000" stroke-miterlimit="10" cx="528.789" cy="536.37799" r="5.25"/>
<circle id="XMLID_91_" stroke="#000000" stroke-miterlimit="10" cx="374.42535" cy="555.09033" r="5.25"/>
<circle id="XMLID_90_" stroke="#000000" stroke-miterlimit="10" cx="400.15262" cy="555.09033" r="5.25"/>
<circle id="XMLID_89_" stroke="#000000" stroke-miterlimit="10" cx="503.06171" cy="555.09033" r="5.25"/>
<circle id="XMLID_88_" stroke="#000000" stroke-miterlimit="10" cx="477.33444" cy="555.09033" r="5.25"/>
<circle id="XMLID_87_" stroke="#000000" stroke-miterlimit="10" cx="451.60718" cy="555.09033" r="5.25"/>
<circle id="XMLID_86_" stroke="#000000" stroke-miterlimit="10" cx="425.87991" cy="555.09033" r="5.25"/>
<circle id="XMLID_85_" stroke="#000000" stroke-miterlimit="10" cx="657.42535" cy="555.09033" r="5.25"/>
<circle id="XMLID_84_" stroke="#000000" stroke-miterlimit="10" cx="631.69806" cy="555.09033" r="5.25"/>
<circle id="XMLID_83_" stroke="#000000" stroke-miterlimit="10" cx="605.97083" cy="555.09033" r="5.25"/>
<circle id="XMLID_82_" stroke="#000000" stroke-miterlimit="10" cx="580.24353" cy="555.09033" r="5.25"/>
<circle id="XMLID_81_" fill="#1FAFC6" stroke="#000000" stroke-miterlimit="10" cx="554.5163" cy="555.09033" r="5.25"/>
<circle id="XMLID_80_" stroke="#000000" stroke-miterlimit="10" cx="528.789" cy="555.09033" r="5.25"/>
<circle id="XMLID_104_" stroke="#000000" stroke-miterlimit="10" cx="374.42535" cy="573.80261" r="5.25"/>
<circle id="XMLID_103_" stroke="#000000" stroke-miterlimit="10" cx="400.15262" cy="573.80261" r="5.25"/>
<circle id="XMLID_102_" stroke="#000000" stroke-miterlimit="10" cx="503.06171" cy="573.80261" r="5.25"/>
<circle id="XMLID_101_" stroke="#000000" stroke-miterlimit="10" cx="477.33444" cy="573.80261" r="5.25"/>
<circle id="XMLID_100_" stroke="#000000" stroke-miterlimit="10" cx="451.60718" cy="573.80261" r="5.25"/>
<circle id="XMLID_99_" stroke="#000000" stroke-miterlimit="10" cx="425.87991" cy="573.80261" r="5.25"/>
<circle id="XMLID_98_" stroke="#000000" stroke-miterlimit="10" cx="657.42535" cy="573.80261" r="5.25"/>
<circle id="XMLID_97_" stroke="#000000" stroke-miterlimit="10" cx="631.69806" cy="573.80261" r="5.25"/>
<circle id="XMLID_96_" stroke="#000000" stroke-miterlimit="10" cx="605.97083" cy="573.80261" r="5.25"/>
<circle id="XMLID_95_" stroke="#000000" stroke-miterlimit="10" cx="580.24353" cy="573.80261" r="5.25"/>
<circle id="XMLID_94_" fill="#1FAFC6" stroke="#000000" stroke-miterlimit="10" cx="554.5163" cy="573.80261" r="5.25"/>
<circle id="XMLID_93_" fill="#1FAFC6" stroke="#000000" stroke-miterlimit="10" cx="528.789" cy="573.80261" r="5.25"/>
<circle id="XMLID_117_" stroke="#000000" stroke-miterlimit="10" cx="374.42535" cy="592.51489" r="5.25"/>
<circle id="XMLID_116_" stroke="#000000" stroke-miterlimit="10" cx="400.15262" cy="592.51489" r="5.25"/>
<circle id="XMLID_115_" stroke="#000000" stroke-miterlimit="10" cx="503.06171" cy="592.51489" r="5.25"/>
<circle id="XMLID_114_" stroke="#000000" stroke-miterlimit="10" cx="477.33444" cy="592.51489" r="5.25"/>
<circle id="XMLID_113_" stroke="#000000" stroke-miterlimit="10" cx="451.60718" cy="592.51489" r="5.25"/>
<circle id="XMLID_112_" stroke="#000000" stroke-miterlimit="10" cx="425.87991" cy="592.51489" r="5.25"/>
<circle id="XMLID_111_" stroke="#000000" stroke-miterlimit="10" cx="657.42535" cy="592.51489" r="5.25"/>
<circle id="XMLID_110_" stroke="#000000" stroke-miterlimit="10" cx="631.69806" cy="592.51489" r="5.25"/>
<circle id="XMLID_109_" stroke="#000000" stroke-miterlimit="10" cx="605.97083" cy="592.51489" r="5.25"/>
<circle id="XMLID_108_" stroke="#000000" stroke-miterlimit="10" cx="580.24353" cy="592.51489" r="5.25"/>
<circle id="XMLID_107_" stroke="#000000" stroke-miterlimit="10" cx="554.5163" cy="592.51489" r="5.25"/>
<circle id="XMLID_106_" fill="#1FAFC6" stroke="#000000" stroke-miterlimit="10" cx="528.789" cy="592.51489" r="5.25"/>
<circle id="XMLID_130_" stroke="#000000" stroke-miterlimit="10" cx="374.42535" cy="611.22723" r="5.25"/>
<circle id="XMLID_129_" stroke="#000000" stroke-miterlimit="10" cx="400.15262" cy="611.22723" r="5.25"/>
<circle id="XMLID_128_" fill="#1FAFC6" stroke="#000000" stroke-miterlimit="10" cx="503.06171" cy="611.22723" r="5.25"/>
<circle id="XMLID_127_" stroke="#000000" stroke-miterlimit="10" cx="477.33444" cy="611.22723" r="5.25"/>
<circle id="XMLID_126_" stroke="#000000" stroke-miterlimit="10" cx="451.60718" cy="611.22723" r="5.25"/>
<circle id="XMLID_125_" stroke="#000000" stroke-miterlimit="10" cx="425.87991" cy="611.22723" r="5.25"/>
<circle id="XMLID_124_" stroke="#000000" stroke-miterlimit="10" cx="657.42535" cy="611.22723" r="5.25"/>
<circle id="XMLID_123_" stroke="#000000" stroke-miterlimit="10" cx="631.69806" cy="611.22723" r="5.25"/>
<circle id="XMLID_122_" stroke="#000000" stroke-miterlimit="10" cx="605.97083" cy="611.22723" r="5.25"/>
<circle id="XMLID_121_" stroke="#000000" stroke-miterlimit="10" cx="580.24353" cy="611.22723" r="5.25"/>
<circle id="XMLID_120_" stroke="#000000" stroke-miterlimit="10" cx="554.5163" cy="611.22723" r="5.25"/>
<circle id="XMLID_119_" fill="#1FAFC6" stroke="#000000" stroke-miterlimit="10" cx="528.789" cy="611.22723" r="5.25"/>
<circle id="XMLID_195_" fill="#1FAFC6" stroke="#000000" stroke-miterlimit="10" cx="374.42535" cy="723.50104" r="5.25"/>
<circle id="XMLID_194_" fill="#1FAFC6" stroke="#000000" stroke-miterlimit="10" cx="400.15262" cy="723.50104" r="5.25"/>
<circle id="XMLID_193_" stroke="#000000" stroke-miterlimit="10" cx="503.06171" cy="723.50104" r="5.25"/>
<circle id="XMLID_192_" stroke="#000000" stroke-miterlimit="10" cx="477.33444" cy="723.50104" r="5.25"/>
<circle id="XMLID_191_" stroke="#000000" stroke-miterlimit="10" cx="451.60718" cy="723.50104" r="5.25"/>
<circle id="XMLID_190_" fill="#1FAFC6" stroke="#000000" stroke-miterlimit="10" cx="425.87991" cy="723.50104" r="5.25"/>
<circle id="XMLID_182_" stroke="#000000" stroke-miterlimit="10" cx="374.42535" cy="648.65179" r="5.25"/>
<circle id="XMLID_181_" stroke="#000000" stroke-miterlimit="10" cx="400.15262" cy="648.65179" r="5.25"/>
<circle id="XMLID_180_" fill="#1FAFC6" stroke="#000000" stroke-miterlimit="10" cx="503.06171" cy="648.65179" r="5.25"/>
<circle id="XMLID_179_" fill="#1FAFC6" stroke="#000000" stroke-miterlimit="10" cx="477.33444" cy="648.65179" r="5.25"/>
<circle id="XMLID_178_" stroke="#000000" stroke-miterlimit="10" cx="451.60718" cy="648.65179" r="5.25"/>
<circle id="XMLID_177_" stroke="#000000" stroke-miterlimit="10" cx="425.87991" cy="648.65179" r="5.25"/>
<circle id="XMLID_175_" stroke="#000000" stroke-miterlimit="10" cx="631.69806" cy="648.65179" r="5.25"/>
<circle id="XMLID_174_" stroke="#000000" stroke-miterlimit="10" cx="605.97083" cy="648.65179" r="5.25"/>
<circle id="XMLID_173_" stroke="#000000" stroke-miterlimit="10" cx="580.24353" cy="648.65179" r="5.25"/>
<circle id="XMLID_172_" stroke="#000000" stroke-miterlimit="10" cx="554.5163" cy="648.65179" r="5.25"/>
<circle id="XMLID_171_" stroke="#000000" stroke-miterlimit="10" cx="528.789" cy="648.65179" r="5.25"/>
<circle id="XMLID_169_" stroke="#000000" stroke-miterlimit="10" cx="374.42535" cy="667.36414" r="5.25"/>
<circle id="XMLID_168_" stroke="#000000" stroke-miterlimit="10" cx="400.15262" cy="667.36414" r="5.25"/>
<circle id="XMLID_167_" stroke="#000000" stroke-miterlimit="10" cx="503.06171" cy="667.36414" r="5.25"/>
<circle id="XMLID_166_" fill="#1FAFC6" stroke="#000000" stroke-miterlimit="10" cx="477.33444" cy="667.36414" r="5.25"/>
<circle id="XMLID_165_" fill="#1FAFC6" stroke="#000000" stroke-miterlimit="10" cx="451.60718" cy="667.36414" r="5.25"/>
<circle id="XMLID_164_" stroke="#000000" stroke-miterlimit="10" cx="425.87991" cy="667.36414" r="5.25"/>
<circle id="XMLID_162_" stroke="#000000" stroke-miterlimit="10" cx="631.69806" cy="667.36414" r="5.25"/>
<circle id="XMLID_161_" stroke="#000000" stroke-miterlimit="10" cx="605.97083" cy="667.36414" r="5.25"/>
<circle id="XMLID_160_" stroke="#000000" stroke-miterlimit="10" cx="580.24353" cy="667.36414" r="5.25"/>
<circle id="XMLID_159_" stroke="#000000" stroke-miterlimit="10" cx="554.5163" cy="667.36414" r="5.25"/>
<circle id="XMLID_158_" stroke="#000000" stroke-miterlimit="10" cx="528.789" cy="667.36414" r="5.25"/>
<circle id="XMLID_156_" stroke="#000000" stroke-miterlimit="10" cx="374.42535" cy="686.07642" r="5.25"/>
<circle id="XMLID_155_" stroke="#000000" stroke-miterlimit="10" cx="400.15262" cy="686.07642" r="5.25"/>
<circle id="XMLID_154_" stroke="#000000" stroke-miterlimit="10" cx="503.06171" cy="686.07642" r="5.25"/>
<circle id="XMLID_153_" fill="#1FAFC6" stroke="#000000" stroke-miterlimit="10" cx="477.33444" cy="686.07642" r="5.25"/>
<circle id="XMLID_152_" fill="#1FAFC6" stroke="#000000" stroke-miterlimit="10" cx="451.60718" cy="686.07642" r="5.25"/>
<circle id="XMLID_151_" stroke="#000000" stroke-miterlimit="10" cx="425.87991" cy="686.07642" r="5.25"/>
<circle id="XMLID_148_" stroke="#000000" stroke-miterlimit="10" cx="605.97083" cy="686.07642" r="5.25"/>
<circle id="XMLID_147_" stroke="#000000" stroke-miterlimit="10" cx="580.24353" cy="686.07642" r="5.25"/>
<circle id="XMLID_146_" stroke="#000000" stroke-miterlimit="10" cx="554.5163" cy="686.07642" r="5.25"/>
<circle id="XMLID_145_" stroke="#000000" stroke-miterlimit="10" cx="528.789" cy="686.07642" r="5.25"/>
<circle id="XMLID_143_" stroke="#000000" stroke-miterlimit="10" cx="374.42535" cy="704.7887" r="5.25"/>
<circle id="XMLID_142_" stroke="#000000" stroke-miterlimit="10" cx="400.15262" cy="704.7887" r="5.25"/>
<circle id="XMLID_141_" stroke="#000000" stroke-miterlimit="10" cx="503.06171" cy="704.7887" r="5.25"/>
<circle id="XMLID_140_" stroke="#000000" stroke-miterlimit="10" cx="477.33444" cy="704.7887" r="5.25"/>
<circle id="XMLID_139_" fill="#1FAFC6" stroke="#000000" stroke-miterlimit="10" cx="451.60718" cy="704.7887" r="5.25"/>
<circle id="XMLID_138_" fill="#1FAFC6" stroke="#000000" stroke-miterlimit="10" cx="425.87991" cy="704.7887" r="5.25"/>
<circle id="XMLID_133_" stroke="#000000" stroke-miterlimit="10" cx="554.5163" cy="704.7887" r="5.25"/>
<circle id="XMLID_132_" stroke="#000000" stroke-miterlimit="10" cx="528.789" cy="704.7887" r="5.25"/>
<text id="XMLID_1_" transform="matrix(1 0 0 1 374.84186 336.27896)" fill="#E04444" font-family="'Microsoft-Yi-Baiti'" font-size="60px" letter-spacing="-5">F</text>
<text id="XMLID_3_" transform="matrix(0.79681 0 0 1 416.68994 337.27896)" font-family="'Microsoft-Yi-Baiti'" font-size="60px" letter-spacing="-10.04004">AT</text>
<text id="XMLID_4_" transform="matrix(1 0 0 1 372.00858 406.6123)" font-family="'Candara'" font-size="60px" letter-spacing="-6">Fer</text>
<text id="XMLID_2_" transform="matrix(1 0 0 1 477.08472 406.6123)" font-family="'Candara'" font-size="60px" letter-spacing="-6">AT</text>
<text id="XMLID_6_" transform="matrix(1 0 0 1 436.35693 406.61215)" font-family="'Candara'" font-size="60px" letter-spacing="-4">m</text>
<text id="XMLID_13_" transform="matrix(0.7 0 0 0.7 436.35706 254.27896)" font-family="'Microsoft-Yi-Baiti'" font-size="44px" letter-spacing="-2.85714">m</text>
<text id="XMLID_20_" transform="matrix(1.21819 0 0 1 0.97766 321.51187)" fill="#4078BD" stroke="#000000" stroke-width="0.5" stroke-miterlimit="10" font-family="'Candara'" font-size="49.25321px" letter-spacing="-4.92534">F</text>
<text id="XMLID_14_" transform="matrix(0.64776 0 0 1 64.19261 320.90805)" fill="#4078BD" stroke="#000000" stroke-width="0.5" stroke-miterlimit="10" font-family="'Candara'" font-size="48.52px" letter-spacing="-4.63134">T</text>
<text id="XMLID_5_" transform="matrix(0.97476 0 0 1 29.65931 321.19302)" font-family="'Candara'" font-size="24.56042px" letter-spacing="-1.02589">m</text>
<text id="XMLID_34_" transform="matrix(0.97476 0 0 1 11.90931 321.19302)" font-family="'Candara'" font-size="24.56042px" letter-spacing="-2.05179">er</text>
<text id="XMLID_35_" transform="matrix(0.66767 0 0 0.7 381.17535 336.22818)" font-family="'Microsoft-Yi-Baiti'" font-size="35.86036px" letter-spacing="-1.49774">erm</text>
<text id="XMLID_36_" transform="matrix(0.65024 0 0 1 48.78821 320.90787)" fill="#4078BD" stroke="#000000" stroke-width="0.5" stroke-miterlimit="10" font-family="'Candara'" font-size="48.5166px" letter-spacing="-4.61368">A</text>
<text id="XMLID_47_" transform="matrix(1.21819 0 0 1 580.5401 352.51187)" font-family="'Candara'" font-size="49.25321px" letter-spacing="-4.92534">F</text>
<text id="XMLID_40_" transform="matrix(0.64776 0 0 1 643.13287 351.90787)" font-family="'Candara'" font-size="48.5166px" letter-spacing="-4.63134">T</text>
<text id="XMLID_39_" transform="matrix(0.97476 0 0 1 608.22174 352.19305)" font-family="'Candara'" font-size="24.56042px" letter-spacing="-1.02589">m</text>
<text id="XMLID_38_" transform="matrix(0.97476 0 0 1 590.47174 352.19305)" font-family="'Candara'" font-size="24.56042px" letter-spacing="-2.05179">er</text>
<text id="XMLID_27_" transform="matrix(0.65024 0 0 1 627.35065 351.90787)" font-family="'Candara'" font-size="48.5166px" letter-spacing="-4.61368">A</text>
<text id="XMLID_207_" transform="matrix(1 0 0 1 440.0849 203.94563)" font-family="'Candara'" font-size="60px" letter-spacing="-6">Fer</text>
<text id="XMLID_206_" transform="matrix(1 0 0 1 545.16107 203.94563)" font-family="'Candara'" font-size="60px" letter-spacing="-6">AT</text>
<text id="XMLID_205_" transform="matrix(1 0 0 1 504.43326 203.94548)" font-family="'Candara'" font-size="60px" letter-spacing="-4">m</text>
<g id="XMLID_332_">
	<path id="XMLID_333_" fill="#ED1C24" d="M46.72735,244.22223H35.51641v9.92969h6.17432l-2.5,3.02606l-3.67432-0.00311v12.7124
		h-3.36328v-28.70801h14.57422V244.22223z"/>
</g>
<text id="XMLID_210_" transform="matrix(1 0 0 1 37.7229 269.88718)" font-family="'Ebrima'" font-size="31px" letter-spacing="-1">erm</text>
<text id="XMLID_52_" transform="matrix(0.74 0 0 1 85.05624 269.88742)" fill="#ED1C24" font-family="'Ebrima'" font-size="41px" letter-spacing="-8.10811">A</text>
<polygon id="XMLID_51_" points="16.91475,239.276 30.89741,255.51352 11.60984,243.35954 "/>
<polygon id="XMLID_53_" points="11.10612,267.46844 30.89846,255.51361 16.51801,271.33948 "/>
<polygon id="XMLID_64_" points="6.94468,252.16713 30.89846,255.51361 6.86137,258.29257 "/>
<polygon id="XMLID_215_" points="10.37493,245.13724 30.89741,255.51352 7.27136,250.48557 "/>
<polygon id="XMLID_216_" points="7.43637,260.07227 30.89846,255.51361 9.91824,265.55988 "/>
<polygon id="XMLID_214_" points="705.24365,178.54614 706.95441,184.93057 700.56995,183.21986 "/>
<polygon id="XMLID_217_" points="680.62872,188.4626 686.35284,191.76743 680.62872,195.07225 "/>
<polygon id="XMLID_218_" points="685.16895,190.72617 690.89307,194.03099 685.16895,197.33583 "/>
<polygon id="XMLID_221_" points="680.23737,197.33582 685.96149,200.64066 680.23737,203.94548 "/>
<polygon id="XMLID_220_" points="716.67694,196.29655 722.40112,199.60138 716.67694,202.9062 "/>
<polygon id="XMLID_219_" points="712.72424,189.6869 718.44836,192.99173 712.72424,196.29655 "/>
<polygon id="XMLID_222_" fill="none" stroke="#000000" stroke-miterlimit="10" points="116.17168,263.94373 110.35616,260.58615 
	116.17168,257.22855 "/>
<polygon id="XMLID_223_" fill="none" stroke="#000000" stroke-miterlimit="10" points="116.17168,257.22855 110.35616,253.87094 
	116.17168,250.51335 "/>
<polygon id="XMLID_224_" fill="none" stroke="#000000" stroke-miterlimit="10" points="121.98721,260.58612 116.17168,257.22855 
	121.98721,253.87094 "/>
<polygon id="XMLID_225_" points="720.62268,244.53658 717.26508,250.3521 713.90753,244.53658 "/>
<polygon id="XMLID_226_" points="717.26508,238.72105 713.90753,244.53658 710.54993,238.72105 "/>
<text id="XMLID_331_" transform="matrix(1 0 0 1 129.55156 337.40405)" fill="#ED1C24" font-family="'Ebrima'" font-size="41px">F</text>
<text id="XMLID_208_" transform="matrix(1 0 0 1 184.84331 337.15402)" fill="#ED1C24" font-family="'Ebrima'" font-size="41px" letter-spacing="-6">AT</text>
<g id="XMLID_335_">
	<path id="XMLID_337_" fill="#ED1C24" d="M116.17168,244.22223h-8.28809v25.66504h-3.36328v-25.66504h-6.24625l-0.95834-3.04297
		h18.85596V244.22223z"/>
</g>
<polygon id="XMLID_92_" points="19.4441,186.87756 33.42676,203.11508 14.13919,190.96111 "/>
<polygon id="XMLID_79_" points="13.63547,215.07001 33.42781,203.11517 19.04737,218.94106 "/>
<polygon id="XMLID_78_" points="9.47404,199.76869 33.42781,203.11517 9.39072,205.89413 "/>
<polygon id="XMLID_66_" points="12.90428,192.7388 33.42676,203.11508 9.80071,198.08713 "/>
<polygon id="XMLID_65_" points="9.96572,207.67384 33.42781,203.11517 12.44759,213.16144 "/>
<g id="XMLID_263_">
	<path id="XMLID_264_" fill="#ED1C24" d="M96.21285,194.13318h-8.97457v7.9489h4.94267l-2.0013,2.42242l-2.94136-0.0025v10.17653
		h-2.69237v-22.98131h11.66694V194.13318z"/>
</g>
<polygon id="XMLID_262_" points="72.34729,190.17361 83.54069,203.17206 68.10062,193.44258 "/>
<polygon id="XMLID_261_" points="67.69738,212.7422 83.54153,203.17215 72.0297,215.84105 "/>
<polygon id="XMLID_260_" points="64.36607,200.49321 83.54153,203.17215 64.29937,205.39676 "/>
<polygon id="XMLID_259_" points="67.11205,194.86566 83.54069,203.17206 64.62758,199.14709 "/>
<polygon id="XMLID_258_" points="64.75967,206.82144 83.54153,203.17215 66.74645,211.21437 "/>
<line id="XMLID_305_" fill="none" stroke="#000000" stroke-miterlimit="10" x1="168.21143" y1="137.12492" x2="182.59663" y2="119.73584"/>
<g id="XMLID_469_">
	<path id="XMLID_470_" fill="#ED1C24" d="M46.03159,93.69712H34.06431v9.92969h6.17432l-2.5,3.02607l-3.67432-0.00312v12.7124
		h-3.36328V90.65415h17.76418L46.03159,93.69712z"/>
</g>
<text id="XMLID_468_" transform="matrix(1 0 0 1 36.27086 119.36206)" font-family="'Ebrima'" font-size="31px" letter-spacing="-1">e</text>
<text id="XMLID_467_" transform="matrix(0.74 0 0 1 79.60413 119.36229)" fill="#ED1C24" font-family="'Ebrima'" font-size="41px" letter-spacing="-8.10811">A</text>
<polygon id="XMLID_466_" points="15.46264,88.75089 29.44531,104.9884 10.15774,92.83443 "/>
<polygon id="XMLID_465_" points="9.65402,116.94333 29.44636,104.9885 15.06591,120.81438 "/>
<polygon id="XMLID_464_" points="5.49258,101.64202 29.44636,104.9885 5.40926,107.76746 "/>
<polygon id="XMLID_463_" points="8.92283,94.61213 29.44531,104.9884 5.81926,99.96045 "/>
<polygon id="XMLID_462_" points="5.98427,109.54716 29.44636,104.9885 8.46614,115.03476 "/>
<polygon id="XMLID_461_" fill="none" stroke="#000000" stroke-miterlimit="10" points="242.36935,182.85379 236.55383,179.4962 
	242.36935,176.1386 "/>
<polygon id="XMLID_460_" fill="none" stroke="#000000" stroke-miterlimit="10" points="242.36935,176.1386 236.55383,172.78101 
	242.36935,169.42342 "/>
<polygon id="XMLID_459_" fill="none" stroke="#000000" stroke-miterlimit="10" points="248.18488,179.4962 242.36935,176.1386 
	248.18488,172.78101 "/>
<g id="XMLID_456_">
	<path id="XMLID_457_" fill="#ED1C24" d="M108.92742,93.69712h-6.49593v25.66504h-3.36328V93.69712h-6.24625l-0.95834-3.04297
		h17.07665L108.92742,93.69712z"/>
</g>
<line id="XMLID_485_" fill="none" stroke="#000000" stroke-width="0.1" stroke-miterlimit="10" x1="231.80035" y1="140.7153" x2="231.80035" y2="145.81947"/>
<line id="XMLID_486_" fill="none" stroke="#000000" stroke-width="0.1" stroke-miterlimit="10" x1="221.65016" y1="140.7153" x2="222.60849" y2="143.75827"/>
<text id="XMLID_501_" transform="matrix(1 0 0 1 49.27069 119.36201)" font-family="'Ebrima'" font-size="31px" letter-spacing="-1">rm</text>
<g id="XMLID_163_">
	<path id="XMLID_170_" fill="#ED1C24" d="M40.97579,51.15008H29.08817v4.85268l6.8476,0.03125l-3.19774,2.11398l-3.64986-0.00169
		v6.86645h-3.34089V48.94546h18.42287L40.97579,51.15008z"/>
</g>
<text id="XMLID_157_" transform="matrix(1.83906 0 0 1 31.27917 65.01237)" font-family="'Ebrima'" font-size="16.74428px" letter-spacing="-0.54376">e</text>
<g id="XMLID_283_">
	<path id="XMLID_284_" fill="#ED1C24" d="M93.80003,65.01274h-2.73682L88.8264,60.6631h-8.94727l-2.10449,4.34964h-2.75195
		l8.40275-16.10508l1.94527,0.00698L93.80003,65.01274z M88.01683,59.02935l-3.31104-6.6107
		c-0.10791-0.21595-0.21582-0.56233-0.32373-1.03868h-0.05908c-0.09814,0.44019-0.21094,0.78658-0.33838,1.03868l-3.28174,6.6107
		H88.01683z"/>
</g>
<g id="XMLID_137_">
	<path id="XMLID_144_" fill="#ED1C24" d="M103.45297,51.15008h-6.45269v13.86266h-3.34089V51.15008h-6.20468l-1.28327-2.24242
		h17.2943L103.45297,51.15008z"/>
</g>
<text id="XMLID_136_" transform="matrix(1.83906 0 0 1 44.19421 65.01237)" font-family="'Ebrima'" font-size="16.74428px" letter-spacing="-0.54376">rm</text>
<polygon id="XMLID_135_" points="13.60938,44.0739 25.10977,57.42884 9.24624,47.43251 "/>
<polygon id="XMLID_134_" points="8.83194,67.26146 25.11063,57.42892 13.28308,70.4453 "/>
<polygon id="XMLID_131_" points="5.40927,54.67653 25.11063,57.42892 5.34074,59.71455 "/>
<polygon id="XMLID_118_" points="8.23056,48.89462 25.10977,57.42884 5.67795,53.29348 "/>
<polygon id="XMLID_105_" points="5.81366,61.17831 25.11063,57.42892 7.85494,65.69171 "/>
<g id="XMLID_294_">
	<path id="XMLID_295_" fill="#ED1C24" d="M38.18607,151.41083H27.14749v4.98033h5.69517l-2.30599,1.51776l-3.38918-0.00157v6.37604
		h-3.10228v-14.3988h16.38563L38.18607,151.41083z"/>
</g>
<text id="XMLID_293_" transform="matrix(1.83906 0 0 1 29.18291 164.28294)" font-family="'Ebrima'" font-size="15.54837px" letter-spacing="-0.54376">e</text>
<text id="XMLID_292_" transform="matrix(1.3609 0 0 1 69.15361 164.28294)" fill="#ED1C24" font-family="'Ebrima'" font-size="20.56398px" letter-spacing="-3.67404">A</text>
<g id="XMLID_289_">
	<path id="XMLID_290_" fill="#ED1C24" d="M96.201,151.41083h-5.99182v12.87256H87.1069v-12.87256h-5.76153l-0.88396-1.52625
		h15.75145L96.201,151.41083z"/>
</g>
<text id="XMLID_288_" transform="matrix(1.83906 0 0 1 41.17509 164.28294)" font-family="'Ebrima'" font-size="15.54837px" letter-spacing="-0.54376">rm</text>
<polygon id="XMLID_287_" points="12.77422,144.84004 23.45323,157.24113 8.7227,147.95877 "/>
<polygon id="XMLID_282_" points="8.33799,166.37149 23.45403,157.24121 12.47123,169.32793 "/>
<polygon id="XMLID_281_" points="5.15977,154.68539 23.45403,157.24121 5.09614,159.3636 "/>
<polygon id="XMLID_280_" points="7.77956,149.31645 23.45323,157.24113 5.40926,153.40114 "/>
<polygon id="XMLID_150_" points="5.53529,160.72281 23.45403,157.24121 7.43077,164.91386 "/>
<g id="XMLID_663_">
	<path id="XMLID_664_" fill="#ED1C24" d="M35.49728,7.07618H24.18963c-0.24422,0-0.44219,0.19798-0.44219,0.44219v3.97031
		c0,0.24343,0.19675,0.44108,0.44017,0.44219l4.9488,0.02258c0.43734,0.002,0.60667,0.56987,0.24184,0.81106l-1.86995,1.23619
		c-0.0724,0.04786-0.15727,0.07336-0.24406,0.07332l-3.0744-0.00142c-0.2443-0.00011-0.44239,0.1979-0.44239,0.44219v5.98187
		c0,0.24422-0.19798,0.44219-0.44219,0.44219h-2.45651c-0.24422,0-0.44219-0.19798-0.44219-0.44219V5.31375
		c0-0.24422,0.19798-0.44219,0.44219-0.44219h16.56149c0.43384,0,0.60823,0.55969,0.25117,0.80612l-1.91294,1.32024
		C35.67461,7.04889,35.587,7.07618,35.49728,7.07618z"/>
</g>
<text id="XMLID_662_" transform="matrix(1.83906 0 0 1 25.93843 20.93847)" font-family="'Ebrima'" font-size="16.74428px" letter-spacing="-0.54376">e</text>
<g id="XMLID_658_">
	<path id="XMLID_659_" fill="#ED1C24" d="M87.35265,20.93831h-1.62086c-0.1848,0-0.3541-0.10331-0.43861-0.26765l-1.96154-3.81434
		c-0.08451-0.16434-0.25381-0.26765-0.43861-0.26765h-8.33702c-0.18913,0-0.3616,0.10815-0.44398,0.2784l-1.83509,3.79285
		c-0.08237,0.17025-0.25484,0.2784-0.44398,0.2784h-1.62904c-0.37037,0-0.60859-0.39299-0.43727-0.72135l7.88753-15.1176
		c0.0853-0.16348,0.25465-0.26572,0.43904-0.26506l1.34782,0.00484c0.18285,0.00066,0.35034,0.10242,0.43517,0.26442
		l7.91338,15.11276C87.96153,20.5447,87.72333,20.93831,87.35265,20.93831z M81.58578,14.95492
		c0.36679,0,0.60525-0.38613,0.44099-0.71408l-2.95338-5.89662c-0.10791-0.21594-0.21582-0.56233-0.32373-1.03868h-0.05908
		c-0.09814,0.44019-0.21094,0.78658-0.33838,1.03868l-2.92803,5.89819c-0.16275,0.32785,0.07574,0.71251,0.44177,0.71251H81.58578z"
		/>
</g>
<g id="XMLID_655_">
	<path id="XMLID_656_" fill="#ED1C24" d="M97.64864,7.07618h-5.52284c-0.2575,0-0.46625,0.20874-0.46625,0.46624V20.4726
		c0,0.2575-0.20874,0.46624-0.46624,0.46624H88.7849c-0.2575,0-0.46624-0.20874-0.46624-0.46624V7.54242
		c0-0.2575-0.20875-0.46624-0.46625-0.46624h-5.46806c-0.16721,0-0.32161-0.08954-0.40466-0.23466l-0.74964-1.30994
		c-0.17787-0.31083,0.04655-0.69782,0.40467-0.69782H97.6561c0.25854,0,0.4677,0.21037,0.46623,0.4689l-0.00745,1.30994
		C98.11341,6.86905,97.9051,7.07618,97.64864,7.07618z"/>
</g>
<text id="XMLID_654_" transform="matrix(1.83906 0 0 1 38.85347 20.93847)" font-family="'Ebrima'" font-size="16.74428px" letter-spacing="-0.54376">rm</text>
<polygon id="XMLID_653_" points="8.26865,0 19.76903,13.35494 3.9055,3.35861 "/>
<polygon id="XMLID_652_" points="3.4912,23.18756 19.76989,13.35503 7.94235,26.3714 "/>
<polygon id="XMLID_651_" points="0.06853,10.60263 19.76989,13.35503 0,15.64065 "/>
<polygon id="XMLID_650_" points="2.88982,4.82072 19.76903,13.35494 0.33721,9.21958 "/>
<polygon id="XMLID_649_" points="0.47293,17.10441 19.76989,13.35503 2.5142,21.61781 "/>
</svg>
