<?xml version="1.0" encoding="utf-8"?>
<!-- Generator: Adobe Illustrator 19.0.0, SVG Export Plug-In . SVG Version: 6.00 Build 0)  -->
<svg version="1.1" id="Layer_1" xmlns="http://www.w3.org/2000/svg" xmlns:xlink="http://www.w3.org/1999/xlink" x="0px" y="0px"
	 viewBox="0 0 77 32.8" style="enable-background:new 0 0 77 32.8;" xml:space="preserve">
<style type="text/css">
	.st0{fill:#1FAFC6;stroke:#000000;stroke-miterlimit:10;}
	.st1{stroke:#000000;stroke-miterlimit:10;}
	.st2{fill:#4078BD;stroke:#000000;stroke-width:0.5;stroke-miterlimit:10;}
	.st3{font-family:'Candara';}
	.st4{font-size:49.2532px;}
	.st5{letter-spacing:-4.9;}
	.st6{font-size:48.5166px;}
	.st7{letter-spacing:-4.6;}
	.st8{font-size:24.5604px;}
	.st9{letter-spacing:-1;}
	.st10{letter-spacing:-2.1;}
</style>
<circle id="XMLID_7_" class="st0" cx="522.3" cy="196.3" r="5.3"/>
<circle id="XMLID_8_" class="st0" cx="496.5" cy="196.3" r="5.3"/>
<circle id="XMLID_9_" class="st1" cx="470.8" cy="196.3" r="5.3"/>
<circle id="XMLID_10_" class="st1" cx="445.1" cy="196.3" r="5.3"/>
<circle id="XMLID_11_" class="st1" cx="419.3" cy="196.3" r="5.3"/>
<circle id="XMLID_12_" class="st1" cx="393.6" cy="196.3" r="5.3"/>
<circle id="XMLID_26_" class="st1" cx="239.3" cy="364.7" r="5.3"/>
<circle id="XMLID_25_" class="st1" cx="265" cy="364.7" r="5.3"/>
<circle id="XMLID_24_" class="st0" cx="367.9" cy="364.7" r="5.3"/>
<circle id="XMLID_23_" class="st1" cx="342.2" cy="364.7" r="5.3"/>
<circle id="XMLID_22_" class="st1" cx="316.4" cy="364.7" r="5.3"/>
<circle id="XMLID_21_" class="st1" cx="290.7" cy="364.7" r="5.3"/>
<circle id="XMLID_19_" class="st1" cx="496.5" cy="364.7" r="5.3"/>
<circle id="XMLID_18_" class="st1" cx="470.8" cy="364.7" r="5.3"/>
<circle id="XMLID_17_" class="st1" cx="445.1" cy="364.7" r="5.3"/>
<circle id="XMLID_16_" class="st1" cx="419.3" cy="364.7" r="5.3"/>
<circle id="XMLID_15_" class="st1" cx="393.6" cy="364.7" r="5.3"/>
<circle id="XMLID_37_" class="st1" cx="367.9" cy="215" r="5.3"/>
<circle id="XMLID_33_" class="st1" cx="522.3" cy="215" r="5.3"/>
<circle id="XMLID_32_" class="st0" cx="496.5" cy="215" r="5.3"/>
<circle id="XMLID_31_" class="st0" cx="470.8" cy="215" r="5.3"/>
<circle id="XMLID_30_" class="st1" cx="445.1" cy="215" r="5.3"/>
<circle id="XMLID_29_" class="st1" cx="419.3" cy="215" r="5.3"/>
<circle id="XMLID_28_" class="st1" cx="393.6" cy="215" r="5.3"/>
<circle id="XMLID_50_" class="st1" cx="367.9" cy="233.8" r="5.3"/>
<circle id="XMLID_49_" class="st1" cx="342.2" cy="233.8" r="5.3"/>
<circle id="XMLID_48_" class="st1" cx="316.4" cy="233.8" r="5.3"/>
<circle id="XMLID_46_" class="st1" cx="522.3" cy="233.8" r="5.3"/>
<circle id="XMLID_45_" class="st1" cx="496.5" cy="233.8" r="5.3"/>
<circle id="XMLID_44_" class="st0" cx="470.8" cy="233.8" r="5.3"/>
<circle id="XMLID_43_" class="st1" cx="445.1" cy="233.8" r="5.3"/>
<circle id="XMLID_42_" class="st1" cx="419.3" cy="233.8" r="5.3"/>
<circle id="XMLID_41_" class="st1" cx="393.6" cy="233.8" r="5.3"/>
<circle id="XMLID_63_" class="st1" cx="367.9" cy="252.5" r="5.3"/>
<circle id="XMLID_62_" class="st1" cx="342.2" cy="252.5" r="5.3"/>
<circle id="XMLID_61_" class="st1" cx="316.4" cy="252.5" r="5.3"/>
<circle id="XMLID_60_" class="st1" cx="290.7" cy="252.5" r="5.3"/>
<circle id="XMLID_59_" class="st1" cx="522.3" cy="252.5" r="5.3"/>
<circle id="XMLID_58_" class="st1" cx="496.5" cy="252.5" r="5.3"/>
<circle id="XMLID_57_" class="st1" cx="470.8" cy="252.5" r="5.3"/>
<circle id="XMLID_56_" class="st0" cx="445.1" cy="252.5" r="5.3"/>
<circle id="XMLID_55_" class="st1" cx="419.3" cy="252.5" r="5.3"/>
<circle id="XMLID_54_" class="st1" cx="393.6" cy="252.5" r="5.3"/>
<circle id="XMLID_77_" class="st1" cx="265" cy="271.2" r="5.3"/>
<circle id="XMLID_76_" class="st1" cx="367.9" cy="271.2" r="5.3"/>
<circle id="XMLID_75_" class="st1" cx="342.2" cy="271.2" r="5.3"/>
<circle id="XMLID_74_" class="st1" cx="316.4" cy="271.2" r="5.3"/>
<circle id="XMLID_73_" class="st1" cx="290.7" cy="271.2" r="5.3"/>
<circle id="XMLID_72_" class="st1" cx="522.3" cy="271.2" r="5.3"/>
<circle id="XMLID_71_" class="st1" cx="496.5" cy="271.2" r="5.3"/>
<circle id="XMLID_70_" class="st1" cx="470.8" cy="271.2" r="5.3"/>
<circle id="XMLID_69_" class="st0" cx="445.1" cy="271.2" r="5.3"/>
<circle id="XMLID_68_" class="st1" cx="419.3" cy="271.2" r="5.3"/>
<circle id="XMLID_67_" class="st1" cx="393.6" cy="271.2" r="5.3"/>
<circle id="XMLID_91_" class="st1" cx="239.3" cy="289.9" r="5.3"/>
<circle id="XMLID_90_" class="st1" cx="265" cy="289.9" r="5.3"/>
<circle id="XMLID_89_" class="st1" cx="367.9" cy="289.9" r="5.3"/>
<circle id="XMLID_88_" class="st1" cx="342.2" cy="289.9" r="5.3"/>
<circle id="XMLID_87_" class="st1" cx="316.4" cy="289.9" r="5.3"/>
<circle id="XMLID_86_" class="st1" cx="290.7" cy="289.9" r="5.3"/>
<circle id="XMLID_85_" class="st1" cx="522.3" cy="289.9" r="5.3"/>
<circle id="XMLID_84_" class="st1" cx="496.5" cy="289.9" r="5.3"/>
<circle id="XMLID_83_" class="st1" cx="470.8" cy="289.9" r="5.3"/>
<circle id="XMLID_82_" class="st1" cx="445.1" cy="289.9" r="5.3"/>
<circle id="XMLID_81_" class="st0" cx="419.3" cy="289.9" r="5.3"/>
<circle id="XMLID_80_" class="st1" cx="393.6" cy="289.9" r="5.3"/>
<circle id="XMLID_104_" class="st1" cx="239.3" cy="308.6" r="5.3"/>
<circle id="XMLID_103_" class="st1" cx="265" cy="308.6" r="5.3"/>
<circle id="XMLID_102_" class="st1" cx="367.9" cy="308.6" r="5.3"/>
<circle id="XMLID_101_" class="st1" cx="342.2" cy="308.6" r="5.3"/>
<circle id="XMLID_100_" class="st1" cx="316.4" cy="308.6" r="5.3"/>
<circle id="XMLID_99_" class="st1" cx="290.7" cy="308.6" r="5.3"/>
<circle id="XMLID_98_" class="st1" cx="522.3" cy="308.6" r="5.3"/>
<circle id="XMLID_97_" class="st1" cx="496.5" cy="308.6" r="5.3"/>
<circle id="XMLID_96_" class="st1" cx="470.8" cy="308.6" r="5.3"/>
<circle id="XMLID_95_" class="st1" cx="445.1" cy="308.6" r="5.3"/>
<circle id="XMLID_94_" class="st0" cx="419.3" cy="308.6" r="5.3"/>
<circle id="XMLID_93_" class="st0" cx="393.6" cy="308.6" r="5.3"/>
<circle id="XMLID_117_" class="st1" cx="239.3" cy="327.3" r="5.3"/>
<circle id="XMLID_116_" class="st1" cx="265" cy="327.3" r="5.3"/>
<circle id="XMLID_115_" class="st1" cx="367.9" cy="327.3" r="5.3"/>
<circle id="XMLID_114_" class="st1" cx="342.2" cy="327.3" r="5.3"/>
<circle id="XMLID_113_" class="st1" cx="316.4" cy="327.3" r="5.3"/>
<circle id="XMLID_112_" class="st1" cx="290.7" cy="327.3" r="5.3"/>
<circle id="XMLID_111_" class="st1" cx="522.3" cy="327.3" r="5.3"/>
<circle id="XMLID_110_" class="st1" cx="496.5" cy="327.3" r="5.3"/>
<circle id="XMLID_109_" class="st1" cx="470.8" cy="327.3" r="5.3"/>
<circle id="XMLID_108_" class="st1" cx="445.1" cy="327.3" r="5.3"/>
<circle id="XMLID_107_" class="st1" cx="419.3" cy="327.3" r="5.3"/>
<circle id="XMLID_106_" class="st0" cx="393.6" cy="327.3" r="5.3"/>
<circle id="XMLID_130_" class="st1" cx="239.3" cy="346" r="5.3"/>
<circle id="XMLID_129_" class="st1" cx="265" cy="346" r="5.3"/>
<circle id="XMLID_128_" class="st0" cx="367.9" cy="346" r="5.3"/>
<circle id="XMLID_127_" class="st1" cx="342.2" cy="346" r="5.3"/>
<circle id="XMLID_126_" class="st1" cx="316.4" cy="346" r="5.3"/>
<circle id="XMLID_125_" class="st1" cx="290.7" cy="346" r="5.3"/>
<circle id="XMLID_124_" class="st1" cx="522.3" cy="346" r="5.3"/>
<circle id="XMLID_123_" class="st1" cx="496.5" cy="346" r="5.3"/>
<circle id="XMLID_122_" class="st1" cx="470.8" cy="346" r="5.3"/>
<circle id="XMLID_121_" class="st1" cx="445.1" cy="346" r="5.3"/>
<circle id="XMLID_120_" class="st1" cx="419.3" cy="346" r="5.3"/>
<circle id="XMLID_119_" class="st0" cx="393.6" cy="346" r="5.3"/>
<circle id="XMLID_195_" class="st0" cx="239.3" cy="458.3" r="5.3"/>
<circle id="XMLID_194_" class="st0" cx="265" cy="458.3" r="5.3"/>
<circle id="XMLID_193_" class="st1" cx="367.9" cy="458.3" r="5.3"/>
<circle id="XMLID_192_" class="st1" cx="342.2" cy="458.3" r="5.3"/>
<circle id="XMLID_191_" class="st1" cx="316.4" cy="458.3" r="5.3"/>
<circle id="XMLID_190_" class="st0" cx="290.7" cy="458.3" r="5.3"/>
<circle id="XMLID_182_" class="st1" cx="239.3" cy="383.5" r="5.3"/>
<circle id="XMLID_181_" class="st1" cx="265" cy="383.5" r="5.3"/>
<circle id="XMLID_180_" class="st0" cx="367.9" cy="383.5" r="5.3"/>
<circle id="XMLID_179_" class="st0" cx="342.2" cy="383.5" r="5.3"/>
<circle id="XMLID_178_" class="st1" cx="316.4" cy="383.5" r="5.3"/>
<circle id="XMLID_177_" class="st1" cx="290.7" cy="383.5" r="5.3"/>
<circle id="XMLID_175_" class="st1" cx="496.5" cy="383.5" r="5.3"/>
<circle id="XMLID_174_" class="st1" cx="470.8" cy="383.5" r="5.3"/>
<circle id="XMLID_173_" class="st1" cx="445.1" cy="383.5" r="5.3"/>
<circle id="XMLID_172_" class="st1" cx="419.3" cy="383.5" r="5.3"/>
<circle id="XMLID_171_" class="st1" cx="393.6" cy="383.5" r="5.3"/>
<circle id="XMLID_169_" class="st1" cx="239.3" cy="402.2" r="5.3"/>
<circle id="XMLID_168_" class="st1" cx="265" cy="402.2" r="5.3"/>
<circle id="XMLID_167_" class="st1" cx="367.9" cy="402.2" r="5.3"/>
<circle id="XMLID_166_" class="st0" cx="342.2" cy="402.2" r="5.3"/>
<circle id="XMLID_165_" class="st0" cx="316.4" cy="402.2" r="5.3"/>
<circle id="XMLID_164_" class="st1" cx="290.7" cy="402.2" r="5.3"/>
<circle id="XMLID_162_" class="st1" cx="496.5" cy="402.2" r="5.3"/>
<circle id="XMLID_161_" class="st1" cx="470.8" cy="402.2" r="5.3"/>
<circle id="XMLID_160_" class="st1" cx="445.1" cy="402.2" r="5.3"/>
<circle id="XMLID_159_" class="st1" cx="419.3" cy="402.2" r="5.3"/>
<circle id="XMLID_158_" class="st1" cx="393.6" cy="402.2" r="5.3"/>
<circle id="XMLID_156_" class="st1" cx="239.3" cy="420.9" r="5.3"/>
<circle id="XMLID_155_" class="st1" cx="265" cy="420.9" r="5.3"/>
<circle id="XMLID_154_" class="st1" cx="367.9" cy="420.9" r="5.3"/>
<circle id="XMLID_153_" class="st0" cx="342.2" cy="420.9" r="5.3"/>
<circle id="XMLID_152_" class="st0" cx="316.4" cy="420.9" r="5.3"/>
<circle id="XMLID_151_" class="st1" cx="290.7" cy="420.9" r="5.3"/>
<circle id="XMLID_148_" class="st1" cx="470.8" cy="420.9" r="5.3"/>
<circle id="XMLID_147_" class="st1" cx="445.1" cy="420.9" r="5.3"/>
<circle id="XMLID_146_" class="st1" cx="419.3" cy="420.9" r="5.3"/>
<circle id="XMLID_145_" class="st1" cx="393.6" cy="420.9" r="5.3"/>
<circle id="XMLID_143_" class="st1" cx="239.3" cy="439.6" r="5.3"/>
<circle id="XMLID_142_" class="st1" cx="265" cy="439.6" r="5.3"/>
<circle id="XMLID_141_" class="st1" cx="367.9" cy="439.6" r="5.3"/>
<circle id="XMLID_140_" class="st1" cx="342.2" cy="439.6" r="5.3"/>
<circle id="XMLID_139_" class="st0" cx="316.4" cy="439.6" r="5.3"/>
<circle id="XMLID_138_" class="st0" cx="290.7" cy="439.6" r="5.3"/>
<circle id="XMLID_133_" class="st1" cx="419.3" cy="439.6" r="5.3"/>
<circle id="XMLID_132_" class="st1" cx="393.6" cy="439.6" r="5.3"/>
<text id="XMLID_1_" transform="matrix(1 0 0 1 239.6665 71.0835)" style="fill:#E04444; font-family:'Microsoft-Yi-Baiti'; font-size:60px; letter-spacing:-5;">F</text>
<text id="XMLID_3_" transform="matrix(0.7968 0 0 1 281.5146 72.0835)" style="font-family:'Microsoft-Yi-Baiti'; font-size:60px; letter-spacing:-10;">AT</text>
<text id="XMLID_4_" transform="matrix(1 0 0 1 236.8332 141.4168)" class="st3" style="font-size:60px; letter-spacing:-6;">Fer</text>
<text id="XMLID_2_" transform="matrix(1 0 0 1 341.9094 141.4168)" class="st3" style="font-size:60px; letter-spacing:-6;">AT</text>
<text id="XMLID_6_" transform="matrix(1 0 0 1 301.1816 141.4167)" class="st3" style="font-size:60px; letter-spacing:-4;">m</text>
<text id="XMLID_13_" transform="matrix(0.7 0 0 0.7 301.1817 -10.9165)" style="font-family:'Microsoft-Yi-Baiti'; font-size:44px; letter-spacing:-2.9;">m</text>
<text id="XMLID_20_" transform="matrix(1.2182 0 0 1 -4.4316 32.3164)" class="st2 st3 st4 st5">F</text>
<text id="XMLID_14_" transform="matrix(0.6478 0 0 1 59.1611 31.7124)" class="st2 st3 st6 st7">T</text>
<text id="XMLID_5_" transform="matrix(0.9748 0 0 1 24.25 31.9976)" class="st3 st8 st9">m</text>
<text id="XMLID_34_" transform="matrix(0.9748 0 0 1 6.5 31.9976)" class="st3 st8 st10">er</text>
<text id="XMLID_35_" transform="matrix(0.6677 0 0 0.7 246 71.0327)" style="font-family:'Microsoft-Yi-Baiti'; font-size:35.8604px; letter-spacing:-1.5;">erm</text>
<text id="XMLID_36_" transform="matrix(0.6502 0 0 1 43.3789 31.7124)" class="st2 st3 st6 st7">A</text>
<text id="XMLID_47_" transform="matrix(1.2182 0 0 1 445.3647 87.3164)" class="st3 st4 st5">F</text>
<text id="XMLID_40_" transform="matrix(0.6478 0 0 1 507.9575 86.7124)" class="st3 st6 st7">T</text>
<text id="XMLID_39_" transform="matrix(0.9748 0 0 1 473.0464 86.9976)" class="st3 st8 st9">m</text>
<text id="XMLID_38_" transform="matrix(0.9748 0 0 1 455.2964 86.9976)" class="st3 st8 st10">er</text>
<text id="XMLID_27_" transform="matrix(0.6502 0 0 1 492.1753 86.7124)" class="st3 st6 st7">A</text>
</svg>
